<?xml version="1.0" encoding="UTF-8"?>
<svg xmlns="http://www.w3.org/2000/svg" xmlns:xlink="http://www.w3.org/1999/xlink" viewBox="0 0 50 50" width="50px" height="50px">
<g id="surface77310012">
<path style=" stroke:none;fill-rule:nonzero;fill:rgb(100%,100%,100%);fill-opacity:1;" d="M 41 4 L 9 4 C 6.242188 4 4 6.242188 4 9 L 4 41 C 4 43.757812 6.242188 46 9 46 L 41 46 C 43.757812 46 46 43.757812 46 41 L 46 9 C 46 6.242188 43.757812 4 41 4 Z M 37.007812 22.324219 C 36.777344 22.34375 36.550781 22.359375 36.316406 22.359375 C 33.691406 22.359375 31.386719 21.007812 30.046875 18.96875 C 30.046875 24.320312 30.046875 30.40625 30.046875 30.507812 C 30.046875 35.214844 26.230469 39.035156 21.519531 39.035156 C 16.8125 39.035156 12.992188 35.214844 12.992188 30.507812 C 12.992188 25.796875 16.8125 21.980469 21.519531 21.980469 C 21.699219 21.980469 21.871094 21.996094 22.046875 22.007812 L 22.046875 26.210938 C 21.871094 26.1875 21.699219 26.15625 21.519531 26.15625 C 19.117188 26.15625 17.167969 28.105469 17.167969 30.507812 C 17.167969 32.910156 19.117188 34.859375 21.519531 34.859375 C 23.925781 34.859375 26.046875 32.964844 26.046875 30.5625 C 26.046875 30.46875 26.089844 10.96875 26.089844 10.96875 L 30.105469 10.96875 C 30.484375 14.558594 33.382812 17.394531 37.007812 17.652344 Z M 37.007812 22.324219 "/>
</g>
</svg>
